FFmpeg version SVN-r25716, Copyright (c) 2000-2010 the FFmpeg developers  built on Nov 10 2010 12:23:18 with gcc 4.1.2 20080704 (Red Hat 4.1.2-48)  configuration: --enable-libmp3lame --enable-shared --disable-mmx --arch=x86_64  libavutil     50.33. 0 / 50.33. 0  libavcore      0.12. 1 /  0.12. 1  libavcodec    52.94. 4 / 52.94. 4  libavformat   52.84. 0 / 52.84. 0  libavdevice   52. 2. 2 / 52. 2. 2  libavfilter    1.59. 0 /  1.59. 0  libswscale     0.12. 0 /  0.12. 0[mov,mp4,m4a,3gp,3g2,mj2 @ 0x1314e4c0] max_analyze_duration reachedInput #0, mov,mp4,m4a,3gp,3g2,mj2, from '/RAID10/data/converted_video_files/35416.mov':  Duration: 00:00:33.75, start: 0.000000, bitrate: 406 kb/s    Stream #0.0(eng): Video: svq1, yuv410p, 512x371, 352 kb/s, 7.82 fps, 24 tbr, 24 tbn, 24 tbc    Stream #0.1(eng): Data: rtp  / 0x20707472, 52 kb/s[buffer @ 0x13150a30] w:512 h:371 pixfmt:yuv410p[ffsink @ 0x13150ca0] auto-inserting filter 'auto-inserted scaler 0' between the filter 'src' and the filter 'out'[scale @ 0x13173390] w:512 h:371 fmt:yuv410p -> w:512 h:371 fmt:yuv420p flags:0x4Output #0, flv, to '/RAID10/data/converted_video_files/35416.flv':  Metadata:    encoder         : Lavf52.84.0    Stream #0.0(eng): Video: flv, yuv420p, 512x371, q=2-31, 600 kb/s, 1k tbn, 24 tbcStream mapping:  Stream #0.0 -> #0.0Press [q] to stop encodingframe=   70 fps=  0 q=4.1 size=     467kB time=8.67 bitrate= 441.5kbits/s    frame=  140 fps=135 q=3.4 size=     951kB time=17.42 bitrate= 447.4kbits/s    frame=  202 fps=130 q=3.3 size=    1429kB time=25.17 bitrate= 465.0kbits/s    frame=  264 fps=128 q=3.3 Lsize=    1956kB time=33.17 bitrate= 483.2kbits/s    video:1952kB audio:0kB global headers:0kB muxing overhead 0.221840%